<?xml version="1.0" standalone="no"?>
<!DOCTYPE svg PUBLIC "-//W3C//DTD SVG 20010904//EN"
 "http://www.w3.org/TR/2001/REC-SVG-20010904/DTD/svg10.dtd">
<svg version="1.0" xmlns="http://www.w3.org/2000/svg"
 width="1280.000000pt" height="1278.000000pt" viewBox="0 0 1280.000000 1278.000000"
 preserveAspectRatio="xMidYMid meet">
<g transform="translate(0.000000,1278.000000) scale(0.100000,-0.100000)"
fill="#000000" stroke="none">
<path d="M6371 12706 c-99 -229 -281 -1037 -317 -1404 -3 -40 -11 -75 -16 -78
-5 -3 -31 18 -57 47 l-47 53 -21 -30 c-30 -42 -70 -144 -99 -254 -20 -72 -27
-129 -31 -238 -3 -78 -9 -144 -12 -146 -4 -3 -33 13 -65 35 -32 21 -64 39 -71
39 -15 0 -38 -90 -54 -215 -15 -113 -32 -398 -26 -443 13 -110 15 -172 4 -172
-6 0 -41 22 -78 49 -91 66 -145 96 -164 88 -24 -9 -30 -80 -24 -276 7 -226 45
-406 113 -543 45 -90 34 -89 -112 7 -149 97 -173 110 -188 95 -17 -17 -12
-296 9 -410 22 -127 60 -238 107 -315 21 -35 38 -67 38 -71 0 -17 -79 9 -148
50 -145 84 -162 82 -162 -18 1 -144 85 -424 192 -636 37 -74 68 -139 68 -144
0 -20 -72 6 -170 63 l-105 61 -17 -21 c-14 -16 -18 -40 -18 -104 0 -184 102
-412 264 -591 25 -29 46 -57 46 -63 0 -16 -54 -13 -149 8 -46 11 -90 17 -97
14 -59 -23 17 -274 166 -546 89 -161 85 -171 -36 -107 -111 59 -120 55 -117
-61 3 -147 98 -378 229 -553 36 -48 63 -94 61 -101 -3 -7 -33 -14 -77 -17 -99
-7 -110 -19 -86 -95 10 -32 50 -123 88 -203 154 -320 171 -370 126 -370 -34 0
-48 13 -78 71 -36 71 -58 75 -116 19 -24 -25 -49 -40 -56 -37 -9 3 -20 35 -27
78 -38 207 -186 495 -267 515 -31 8 -39 -2 -54 -69 -23 -109 -48 -114 -79 -14
-76 234 -201 457 -258 457 -6 0 -33 -36 -59 -80 -46 -78 -71 -102 -79 -77 -2
6 -9 50 -15 96 -25 182 -95 336 -201 444 -62 62 -99 81 -113 58 -3 -5 -13 -42
-21 -82 -39 -186 -49 -190 -106 -40 -66 175 -200 400 -292 490 -67 65 -72 60
-112 -109 -9 -36 -24 -74 -35 -84 -18 -19 -19 -18 -30 23 -30 113 -106 235
-220 355 -74 78 -164 156 -180 156 -13 0 -28 -56 -45 -175 -8 -60 -19 -113
-24 -118 -10 -10 -24 8 -45 63 -43 110 -201 312 -330 422 -92 79 -124 97 -136
79 -9 -16 -30 -147 -30 -191 0 -50 -19 -44 -81 24 -34 36 -107 103 -162 148
-108 87 -303 218 -323 218 -14 0 -19 -14 -29 -77 -4 -24 -11 -45 -15 -48 -5
-3 -38 21 -74 53 -107 94 -296 196 -403 216 l-33 6 0 -60 c0 -33 -4 -60 -9
-60 -4 0 -64 38 -132 84 -280 189 -730 444 -909 514 -112 45 -120 46 -120 26
0 -73 418 -680 673 -979 47 -54 83 -103 81 -107 -3 -4 -30 -8 -60 -8 -50 0
-54 -2 -54 -24 0 -68 162 -313 265 -402 30 -25 55 -51 55 -56 0 -9 -2 -10 -72
-28 -27 -7 -48 -18 -48 -25 0 -44 360 -427 443 -470 44 -23 48 -42 10 -51
-158 -36 -203 -51 -203 -68 0 -23 178 -183 280 -252 124 -84 169 -108 270
-144 41 -14 74 -30 73 -36 -2 -9 -47 -23 -186 -59 -114 -30 -114 -33 -26 -118
135 -129 339 -248 452 -263 26 -4 50 -11 54 -17 11 -17 -34 -44 -120 -72 -45
-15 -89 -34 -97 -42 -13 -13 -10 -19 31 -56 108 -99 382 -221 612 -271 15 -4
27 -13 27 -21 0 -19 -37 -37 -142 -69 -62 -19 -88 -31 -88 -42 0 -29 39 -71
107 -118 119 -80 275 -126 431 -126 105 0 125 -9 97 -40 -11 -12 -46 -40 -77
-62 -31 -22 -59 -46 -62 -55 -19 -49 174 -139 438 -203 65 -17 121 -32 124
-35 12 -11 -25 -35 -88 -57 -81 -29 -88 -50 -34 -98 86 -75 300 -152 479 -172
55 -6 104 -15 109 -19 5 -5 -7 -31 -27 -61 -21 -29 -37 -61 -37 -70 0 -28 45
-45 373 -143 82 -25 89 -29 107 -65 24 -48 24 -47 1 -59 -15 -8 -39 -1 -113
33 -164 78 -245 95 -241 51 0 -11 4 -44 8 -72 5 -35 4 -53 -3 -53 -5 0 -32 18
-58 40 -99 82 -272 145 -347 126 -35 -8 -34 -24 3 -83 27 -42 41 -100 23 -91
-5 2 -43 20 -85 40 -102 50 -236 89 -325 95 -85 6 -87 3 -44 -66 57 -94 50
-115 -26 -76 -26 14 -79 32 -118 40 -75 16 -260 20 -269 7 -3 -5 18 -43 46
-85 28 -43 48 -80 45 -84 -4 -3 -41 6 -84 20 -153 50 -413 65 -413 23 0 -6 16
-35 35 -63 19 -29 35 -57 35 -63 0 -6 -41 -10 -112 -10 -144 0 -348 -28 -348
-47 0 -3 9 -18 21 -34 11 -16 18 -33 15 -37 -3 -5 -43 -12 -89 -15 -84 -6
-224 -45 -261 -73 -19 -14 -19 -15 9 -44 33 -35 36 -33 -95 -55 -308 -51 -712
-158 -734 -194 -18 -29 521 -150 787 -177 71 -7 82 -18 47 -49 -11 -10 -20
-21 -20 -25 0 -9 86 -44 145 -60 22 -6 82 -13 133 -17 50 -3 92 -9 92 -14 0
-4 -8 -21 -17 -38 -16 -28 -16 -33 -3 -41 27 -17 122 -25 288 -25 89 0 162 -4
162 -8 0 -5 -16 -36 -37 -68 -20 -33 -33 -62 -29 -66 28 -28 307 1 412 43 64
25 84 29 84 16 0 -5 -20 -40 -45 -78 -24 -38 -45 -75 -45 -81 0 -18 156 -17
245 2 39 8 98 28 131 45 34 16 64 30 68 30 13 0 5 -33 -24 -90 -16 -33 -30
-65 -30 -71 0 -20 120 -3 222 31 50 17 126 49 168 70 114 60 120 55 65 -51
-19 -36 -31 -69 -28 -73 12 -12 99 -6 154 10 79 24 139 57 209 115 37 31 65
48 71 42 5 -5 5 -32 -2 -67 -15 -74 -7 -83 58 -67 59 15 146 53 235 103 37 21
73 38 79 38 13 0 8 -27 -12 -77 -10 -25 -10 -36 -2 -44 31 -31 237 47 342 129
60 46 75 48 79 11 8 -68 11 -72 48 -64 29 5 42 1 70 -20 19 -14 34 -30 34 -34
0 -5 -30 -12 -66 -16 -79 -8 -135 -26 -186 -61 -49 -31 -48 -50 1 -64 21 -5
44 -17 51 -25 14 -17 14 -17 -60 -35 -61 -15 -201 -83 -224 -109 -18 -20 -18
-21 0 -27 61 -22 85 -35 82 -45 -2 -6 -27 -19 -56 -28 -56 -19 -143 -75 -182
-116 -25 -27 -27 -26 49 -48 25 -7 46 -17 47 -22 2 -6 -31 -26 -74 -47 -81
-38 -200 -136 -189 -155 4 -6 22 -14 42 -17 19 -4 37 -11 39 -15 3 -5 -42 -56
-99 -113 -58 -58 -105 -110 -105 -116 0 -6 9 -14 20 -17 27 -9 25 -27 -6 -56
-36 -33 -104 -138 -104 -161 0 -11 7 -18 20 -18 26 0 26 -22 -1 -46 -53 -47
-329 -447 -317 -459 12 -12 270 124 431 229 48 31 92 56 97 56 6 0 10 -12 10
-26 0 -22 3 -24 23 -18 40 12 121 56 159 86 39 31 58 30 58 -3 0 -10 4 -19 8
-19 14 0 122 78 188 136 34 29 64 50 68 47 3 -3 6 -20 6 -37 0 -45 13 -61 37
-48 36 20 143 142 169 194 29 57 40 54 53 -15 5 -27 11 -50 14 -54 19 -19 143
123 168 192 18 48 36 44 50 -10 6 -25 15 -48 20 -50 21 -13 169 227 169 273 0
7 7 12 15 12 13 0 35 -55 35 -87 0 -22 25 -14 52 15 37 39 68 105 82 175 7 34
17 62 23 64 6 2 21 -12 33 -32 l22 -36 23 21 c19 18 62 102 104 204 9 22 14
26 25 17 8 -7 17 -23 20 -36 8 -33 19 -31 52 8 33 39 58 94 78 172 19 70 21
73 44 52 41 -38 43 -36 128 170 13 34 32 41 51 22 33 -33 63 35 84 190 14 100
23 115 49 84 10 -13 21 -23 24 -23 11 0 27 50 73 235 48 191 79 285 94 285 12
0 12 -15 -6 -172 -51 -472 -55 -666 -20 -993 49 -455 57 -554 63 -820 l7 -270
43 -3 c38 -3 43 -1 53 25 13 33 5 514 -10 633 -8 63 -29 245 -57 499 -12 106
-5 557 11 741 19 219 33 354 41 394 11 53 31 7 104 -244 39 -135 78 -260 87
-277 17 -35 40 -43 49 -18 10 25 44 18 44 -9 0 -13 7 -62 15 -110 25 -140 56
-197 84 -149 15 28 37 0 76 -102 43 -111 54 -123 89 -100 33 22 42 15 50 -37
8 -52 67 -177 95 -202 24 -22 37 -16 45 25 9 48 27 31 64 -63 19 -48 47 -102
62 -120 l28 -33 22 38 c12 20 27 37 34 37 7 0 17 -25 23 -58 13 -71 46 -142
83 -182 35 -37 48 -38 56 -3 8 41 22 73 32 73 4 0 21 -30 37 -67 36 -84 122
-213 141 -213 8 0 18 18 25 45 6 25 16 45 23 45 6 0 23 -26 38 -58 28 -60 138
-179 156 -168 5 3 12 28 16 55 4 28 11 53 15 56 5 3 24 -20 42 -52 38 -66 162
-197 181 -191 7 3 16 23 19 46 3 23 8 45 12 49 4 4 31 -16 60 -44 28 -28 84
-72 122 -98 l70 -48 9 27 c6 14 13 26 17 26 3 0 24 -14 45 -31 47 -38 160 -93
173 -84 6 3 8 12 5 19 -14 36 26 21 138 -50 140 -88 356 -204 382 -204 15 0
13 8 -14 57 -39 71 -153 231 -235 333 -82 101 -80 98 -51 110 23 8 25 12 16
35 -14 37 -62 104 -99 139 -36 34 -39 52 -11 59 11 3 20 10 20 16 0 18 -117
148 -165 182 -25 18 -44 37 -42 43 2 6 25 17 50 24 43 12 46 15 34 33 -20 33
-122 108 -192 140 -36 17 -67 35 -70 40 -3 4 19 15 49 24 31 9 58 20 61 25 14
23 -153 136 -227 154 -49 12 -34 28 56 60 18 6 18 7 0 27 -26 29 -125 78 -209
104 -82 25 -90 44 -27 63 23 8 42 20 42 28 0 35 -117 87 -222 99 -32 3 -60 10
-63 15 -3 5 12 21 33 35 29 19 47 24 66 19 22 -5 27 -2 36 21 5 14 10 37 10
51 0 33 11 30 72 -16 101 -77 287 -151 338 -135 25 8 25 16 -1 67 -13 25 -17
44 -11 50 5 5 53 -14 124 -51 119 -62 218 -97 245 -87 12 5 14 18 8 76 -5 46
-4 70 3 70 6 0 32 -18 58 -41 67 -58 119 -89 194 -116 67 -23 164 -31 175 -13
4 6 -7 36 -24 67 -31 57 -39 93 -21 93 6 0 34 -13 63 -29 102 -58 296 -121
369 -121 48 0 49 13 6 96 -18 35 -29 66 -25 70 4 4 38 -7 75 -24 37 -18 96
-39 132 -47 69 -16 235 -20 244 -7 3 5 -15 39 -40 77 -24 38 -44 77 -44 87 0
15 4 15 47 -4 71 -31 133 -46 257 -59 117 -13 186 -7 186 15 0 8 -16 37 -35
66 -19 29 -35 55 -35 59 0 3 80 6 178 6 163 1 292 15 292 33 0 4 -9 20 -19 36
-11 17 -18 33 -15 38 3 4 30 8 60 8 91 0 261 41 302 73 10 8 7 16 -14 38 -20
21 -24 30 -13 33 8 2 97 16 198 31 272 40 593 113 641 145 13 9 13 11 0 20
-54 35 -418 130 -674 176 -83 15 -155 31 -161 36 -7 6 -2 16 13 28 12 10 22
23 22 29 0 30 -154 80 -272 88 -94 6 -106 16 -72 54 9 10 14 24 11 32 -8 21
-123 38 -299 44 -87 3 -158 8 -158 11 0 2 18 31 40 64 22 33 40 64 40 68 0 4
-17 10 -37 14 -99 16 -265 -1 -381 -40 -40 -13 -75 -24 -77 -24 -14 0 0 32 40
89 25 36 45 71 45 78 0 10 -24 13 -102 13 -121 0 -216 -18 -286 -54 -28 -14
-54 -26 -57 -26 -13 0 -2 38 25 87 42 74 40 83 -18 83 -85 0 -252 -49 -372
-110 -78 -39 -87 -24 -36 61 20 33 36 65 36 70 0 17 -54 22 -116 12 -81 -14
-174 -57 -253 -116 -38 -29 -67 -45 -73 -39 -5 5 -5 27 1 53 17 71 14 89 -12
89 -40 0 -128 -30 -230 -78 -103 -48 -126 -48 -113 1 13 53 35 66 226 123 208
62 253 81 258 108 2 10 -13 42 -33 72 -20 29 -34 57 -31 62 3 5 47 12 98 15
120 8 260 46 374 102 155 75 194 134 109 163 -76 26 -105 42 -105 57 0 8 12
17 28 21 267 61 458 131 511 188 27 28 21 44 -26 76 -47 31 -113 90 -113 100
0 4 51 10 113 13 141 8 247 35 356 88 93 46 185 126 179 156 -2 13 -30 28
-104 53 -55 19 -106 39 -112 43 -30 20 -9 35 77 55 104 24 238 75 365 139 101
50 210 124 219 147 9 23 -18 44 -81 62 -125 36 -177 77 -114 89 122 25 255 88
374 179 96 72 185 163 173 175 -6 6 -62 24 -125 41 -184 49 -189 53 -90 85
165 53 428 232 531 361 39 50 31 57 -100 88 -57 14 -106 27 -108 30 -2 2 29
29 69 59 133 100 418 409 418 452 0 8 -23 19 -55 26 -31 7 -58 16 -61 21 -3 5
21 34 55 64 80 73 175 200 223 299 51 105 49 119 -19 123 -29 2 -53 7 -53 13
0 5 39 56 86 112 268 317 663 894 664 969 0 16 -7 15 -72 -8 -197 -71 -740
-378 -1033 -583 l-60 -42 -3 61 -3 62 -37 -7 c-113 -21 -298 -119 -404 -214
-31 -28 -61 -51 -66 -51 -5 0 -12 27 -16 60 -4 33 -11 62 -16 65 -31 19 -339
-204 -488 -354 -40 -40 -76 -70 -80 -66 -4 3 -12 49 -19 100 -6 51 -16 103
-23 114 -10 19 -14 20 -35 9 -43 -23 -161 -127 -223 -196 -91 -103 -165 -210
-202 -296 -18 -42 -37 -76 -41 -76 -11 0 -17 22 -34 140 -9 62 -21 124 -26
137 -8 22 -10 23 -37 9 -48 -25 -178 -153 -244 -239 -64 -86 -124 -198 -134
-254 -6 -33 -26 -43 -41 -20 -4 6 -19 57 -33 111 -34 133 -44 139 -115 64
-103 -111 -245 -358 -297 -519 -34 -108 -53 -94 -87 66 -12 54 -24 101 -26
103 -11 11 -60 -12 -97 -46 -101 -90 -187 -273 -214 -456 -8 -55 -17 -103 -20
-108 -9 -15 -33 12 -76 84 -22 38 -44 71 -49 74 -48 29 -168 -168 -253 -414
-20 -57 -39 -108 -42 -113 -11 -19 -32 12 -44 64 -14 60 -35 97 -54 97 -21 0
-98 -89 -144 -165 -58 -99 -101 -214 -125 -330 -10 -55 -23 -104 -27 -109 -5
-4 -31 12 -58 38 -27 25 -56 46 -64 46 -19 0 -40 -24 -66 -76 -21 -42 -38 -54
-73 -54 -34 0 -22 49 52 205 186 393 197 427 149 452 -14 7 -51 13 -83 13 -39
0 -59 4 -63 14 -3 7 26 56 64 108 139 193 237 438 230 575 -4 83 -19 87 -120
35 -130 -66 -134 -60 -52 83 138 240 229 507 191 559 -14 19 -16 19 -108 -2
-104 -24 -149 -28 -149 -11 0 6 23 36 51 67 116 130 206 296 243 449 20 81 19
234 -1 254 -8 8 -35 -2 -110 -44 -133 -76 -172 -92 -179 -73 -3 7 22 65 54
127 106 201 188 459 199 624 9 137 0 139 -162 46 -79 -45 -145 -65 -145 -43 0
4 11 23 24 42 86 128 136 335 139 577 1 109 -2 166 -9 173 -15 15 -54 -5 -194
-99 -100 -67 -130 -82 -130 -62 0 4 15 41 34 82 68 150 106 362 106 592 0 79
-3 159 -6 176 -11 53 -40 43 -193 -66 -41 -29 -76 -51 -78 -49 -2 2 0 55 6
117 19 227 -31 719 -74 719 -7 0 -39 -18 -71 -39 -32 -22 -62 -37 -66 -35 -5
3 -8 52 -8 108 0 115 -18 228 -57 350 -26 82 -75 190 -91 200 -5 3 -31 -17
-57 -45 -26 -28 -51 -47 -55 -42 -4 4 -13 51 -19 103 -42 343 -169 949 -258
1225 -32 101 -73 195 -85 195 -5 0 -17 -20 -27 -44z"/>
</g>
</svg>
