<?xml version="1.0" standalone="no"?>
<!DOCTYPE svg PUBLIC "-//W3C//DTD SVG 20010904//EN"
 "http://www.w3.org/TR/2001/REC-SVG-20010904/DTD/svg10.dtd">
<svg version="1.0" xmlns="http://www.w3.org/2000/svg"
 width="520.000000pt" height="522.000000pt" viewBox="0 0 520.000000 522.000000"
 preserveAspectRatio="xMidYMid meet">

<g transform="translate(0.000000,522.000000) scale(0.100000,-0.100000)"
fill="#000000" stroke="none">
<path d="M2468 4038 c-52 -122 -132 -314 -179 -425 l-84 -202 -52 -1 c-28 0
-55 5 -58 10 -4 6 33 160 81 342 l87 330 -54 48 c-53 47 -54 47 -65 26 -7 -11
-53 -178 -104 -371 -51 -192 -95 -358 -98 -368 -4 -15 -13 -17 -51 -15 l-46 3
0 50 c0 28 3 68 6 91 6 37 4 42 -25 62 -18 12 -35 22 -39 22 -3 0 -8 -44 -9
-97 l-3 -98 -80 -3 c-56 -2 -85 -8 -97 -19 -21 -18 -21 -22 -8 -43 8 -13 140
-16 1057 -20 l1048 -5 47 -22 c57 -27 126 -93 153 -148 17 -34 20 -61 20 -180
l0 -140 -285 -6 c-157 -3 -301 -11 -321 -16 -160 -45 -268 -181 -277 -349 -10
-182 88 -325 262 -387 18 -7 155 -13 326 -17 l295 -5 3 -134 c2 -127 1 -137
-23 -187 -35 -71 -112 -140 -179 -159 -46 -13 -193 -15 -1137 -13 l-1084 3
-43 23 c-24 13 -46 21 -49 18 -4 -4 158 -208 578 -726 78 -96 192 -238 254
-315 63 -77 174 -214 247 -305 l134 -165 59 -3 c71 -4 311 22 410 44 39 9 90
20 115 25 165 34 446 145 616 242 433 249 754 576 988 1005 185 339 296 771
296 1149 l0 146 -255 261 c-578 593 -955 969 -940 939 8 -18 15 -59 15 -94 0
-56 -8 -80 -82 -246 l-81 -183 -104 0 c-123 0 -126 3 -92 87 17 42 20 58 10
61 -40 13 -99 74 -129 132 -33 63 -34 68 -30 164 l3 99 -125 52 -125 53 -32
-48 c-60 -89 -168 -138 -282 -127 -31 3 -63 8 -71 11 -12 5 -37 -47 -115 -232
-54 -130 -104 -240 -110 -244 -16 -12 -213 -9 -221 3 -3 6 65 179 152 385
l158 375 -41 40 -40 41 -95 -224z m695 -348 c123 -20 230 -93 283 -194 47 -91
64 -87 -323 -84 l-338 3 -3 23 c-5 34 25 113 57 153 49 59 147 102 246 108 11
0 46 -3 78 -9z m818 -949 l29 -29 0 -242 c0 -241 0 -241 -24 -265 -13 -13 -39
-27 -58 -30 -19 -4 -155 -5 -304 -3 -258 3 -271 4 -322 27 -101 46 -172 157
-172 270 0 102 52 206 125 251 76 47 94 49 403 50 l294 0 29 -29z"/>
<path d="M3485 2570 c-26 -10 -61 -49 -69 -77 -17 -54 45 -123 110 -123 35 0
94 59 94 94 0 42 -28 86 -65 102 -39 16 -42 16 -70 4z"/>
</g>
</svg>
